<svg width="280" height="280" viewBox="0 0 280 280" fill="none" xmlns="http://www.w3.org/2000/svg">
<g filter="url(#filter0_d_opennotes)">
<rect x="24" y="12" width="232" height="232" rx="54" fill="#F0653F"/>
</g>
<rect x="28" y="12" width="224" height="220" rx="50" fill="#FFA48A"/>
<rect x="28.5" y="12.5" width="223" height="219" rx="49.5" stroke="white" stroke-opacity="0.24"/>
<g transform="translate(66 48) scale(1.16)">
<path fill-rule="evenodd" clip-rule="evenodd" d="M34 24H94C99.523 24 104 28.477 104 34V74L74 104H34C28.477 104 24 99.523 24 94V34C24 28.477 28.477 24 34 24ZM74 74H104L74 104V74Z" fill="#141414"/>
<path d="M79 80H96L79 97V80Z" fill="#141414"/>
</g>
<defs>
<filter id="filter0_d_opennotes" x="0" y="0" width="280" height="280" filterUnits="userSpaceOnUse" color-interpolation-filters="sRGB">
<feFlood flood-opacity="0" result="BackgroundImageFix"/>
<feColorMatrix in="SourceAlpha" type="matrix" values="0 0 0 0 0 0 0 0 0 0 0 0 0 0 0 0 0 0 127 0" result="hardAlpha"/>
<feMorphology radius="8" operator="erode" in="SourceAlpha" result="effect1_dropShadow_opennotes"/>
<feOffset dy="12"/>
<feGaussianBlur stdDeviation="16"/>
<feColorMatrix type="matrix" values="0 0 0 0 0 0 0 0 0 0 0 0 0 0 0 0 0 0 0.16 0"/>
<feBlend mode="normal" in2="BackgroundImageFix" result="effect1_dropShadow_opennotes"/>
<feBlend mode="normal" in="SourceGraphic" in2="effect1_dropShadow_opennotes" result="shape"/>
</filter>
</defs>
</svg>
